<?xml version="1.0" encoding="utf-8" ?>
<svg baseProfile="full" height="200mm" version="1.1" viewBox="0,0,200,200" width="200mm" xmlns="http://www.w3.org/2000/svg" xmlns:ev="http://www.w3.org/2001/xml-events" xmlns:xlink="http://www.w3.org/1999/xlink"><defs /><rect fill="#1a1a1a" height="200" width="200" x="0" y="0" /><text alignment-baseline="middle" fill="#e1ed5e" style="dominant-baseline: central; font-size:9.0px; font-family:Arial;" text-anchor="middle" x="100.0" y="100.0">2020</text><line stroke="#e1ed5e" stroke-width="0.3" x1="100.0" x2="100.0" y1="15.0" y2="10.0" /><path d="M 100.0 14.0 a86.0,86.0 0 0,1 42.35913384403234,11.155469271406648" fill="none" id="id97" stroke="none" /><text fill="#e1ed5e" style="font-size:6.75px; font-family:Arial;" text-anchor="middle"><textPath startOffset="22.145653131862478" xlink:href="#id97">January</textPath></text><path d="M 100.0 79.0 l 0.0 -13.016023756321296 a34.016023756321296,34.016023756321296 0 0,0 0.583930280744971,0.005012339166353126 l -0.22343735589611627 13.014105815349378" fill="#ff880c" stroke="none" /><path d="M 100.36049292484886 79.00309439819443 l 0.942570501746255 -54.90000630805861 a75.90809714218511,75.90809714218511 0 0,0 1.302679407822301,0.03355240062352361 l -1.8848632236392975 54.875736190085036" fill="#42ffdb" stroke="none" /><path d="M 100.72087961077811 79.0123766808444 l 1.2775923065484955 -37.19570602967745 a58.2176408326473,58.2176408326473 0 0,0 0.9984997384053542,0.04287987504707256 l -1.915917805554686 37.16829358620455" fill="#4eff2c" stroke="none" /><path d="M 101.08105385017728 79.02784411241856 l 1.1161121353926582 -21.652277254863648 a42.681024344349055,42.681024344349055 0 0,0 0.7313813174802798,0.04399808387958761 l -1.4876378050054002 21.629927193159368" fill="#fffc17" stroke="none" /><path d="M 101.80034050326958 79.07731436759882 l 1.356384962018769 -15.763249288285133 a36.82149829471951,36.82149829471951 0 0,0 0.6292977054663255,0.059595146986018484 l -1.6267822308701072 15.737642385793931" fill="#ffaf10" stroke="none" /><path d="M 102.15924093988457 79.11130261209362 l 2.1691191561096086 -20.984260169088262 a42.09607197459721,42.09607197459721 0 0,0 0.7181672034346209,0.08047213309828678 l -2.529022261145026 20.943932275483004" fill="#fff417" stroke="none" /><path d="M 102.51750503828377 79.15144685158666 l 0.7538747740479893 -6.243164583576087 a27.288515817946607,27.288515817946607 0 0,0 0.46458331488570737,0.06014961139395074 l -0.8609359108244884 6.229303375981739" fill="#ff2703" stroke="none" /><path d="M 102.87502721639298 79.19773525538626 l 6.595301614592381 -47.720317037366094 a69.17392096906974,69.17392096906974 0 0,0 1.1748857598259763,0.1726677472812651 l -7.413512480026038 47.60006821678594" fill="#3aff90" stroke="none" /><path d="M 103.23170211078529 79.25015418208739 l 2.6443479484887433 -16.978610756522265 a38.18330001176055,38.18330001176055 0 0,0 0.6467932772312945,0.10642958763470182 l -2.9354187287731084 16.930715170391895" fill="#ffc111" stroke="none" /><path d="M 103.58742460773223 79.30868818359171 l 8.864351960573675 -51.127226498723545 a72.88998000705632,72.88998000705632 0 0,0 1.2310259133648096,0.22433392904582272 l -9.740712607489538 50.96752439574635" fill="#3fffba" stroke="none" /><path d="M 104.64783097203109 79.52079915486377 l 1.6434397977782729 -7.241298984004069 a28.425449841232506,28.425449841232506 0 0,0 0.47493220784610374,0.11208270787832297 l -1.7675041593642615 7.212020132479519" fill="#ff3805" stroke="none" /><path d="M 109.06512990194946 81.05736502329252 l 12.797792822413463 -26.74246486973915 a50.64697165706221,50.64697165706221 0 0,0 0.78102393700258,0.3820379451965502 l -13.25497700867811 26.518833174445376" fill="#a1ff22" stroke="none" /><path d="M 109.3889696526874 81.21577127319529 l 16.716462545044934 -33.44412300441407 a58.38916264847701,58.38916264847701 0 0,0 0.8927224130173449,0.4558304249856847 l -17.288112179775858 33.15223462775555" fill="#4cff2c" stroke="none" /><path d="M 110.02825361518725 81.54914285379988 l 13.466495149275856 -24.776834311708427 a49.199964718334705,49.199964718334705 0 0,0 0.7385988009509443,0.4096883043374889 l -13.8898381383829 24.542013091937793" fill="#b2ff20" stroke="none" /><path d="M 110.34350942703115 81.72400993836675 l 6.882879908803519 -12.161389294040955 a34.974026814065624,34.974026814065624 0 0,0 0.5199597428858913,0.300198897522938 l -7.090632119549807 12.041443499241845" fill="#ff950d" stroke="none" /><line stroke="#e1ed5e" stroke-width="0.3" x1="143.13028292997686" x2="145.6673583964461" y1="26.7553504044142" y2="22.446841604673864" /><path d="M 143.63769802327073 25.89364864446614 a86.0,86.0 0 0,1 29.32050498858742,28.57503671076993" fill="none" id="id98" stroke="none" /><text fill="#e1ed5e" style="font-size:6.75px; font-family:Arial;" text-anchor="middle"><textPath startOffset="20.669276256404974" xlink:href="#id98">February</textPath></text><path d="M 110.65571695917076 81.90426304109057 l 5.840029656959611 -9.917647109950577 a32.50937316241327,32.50937316241327 0 0,0 0.4784563023501331,0.2872992623951034 l -6.009418715867177 9.815933847019553" fill="#ff730a" stroke="none" /><path d="M 113.03279911837588 83.53348406188908 l 12.466838742689617 -15.751443491898119 a41.08805715629778,41.08805715629778 0 0,0 0.549306685439508,0.4424825824100336 l -12.735396198484384 15.535112615694677" fill="#ffe715" stroke="none" /><path d="M 114.65682725009322 84.96080404539774 l 16.40373558557563 -16.831677801031955 a44.50293425849701,44.50293425849701 0 0,0 0.5425290832428729,0.5378921103945882 l -16.69025658894847 16.547605680408708" fill="#ebff1a" stroke="none" /><path d="M 114.91283532996326 85.21462403516908 l 2.7420289776115547 -2.7185929733288137 a24.861278372339175,24.861278372339175 0 0,0 0.29787741803544754,0.30564847247261895 l -2.788293196797814 2.671121808788453" fill="#ff0200" stroke="none" /><path d="M 115.16444852881244 85.47280134310134 l 10.722208540809092 -10.271633235925353 a35.84830648006586,35.84830648006586 0 0,0 0.42189046747537645,0.4480330562962091 l -10.896954842020728 10.08605871968465" fill="#ffa10e" stroke="none" /><path d="M 116.35404254752997 86.82634096563983 l 24.58905210576021 -19.80719980873019 a52.57446195460426,52.57446195460426 0 0,0 0.5601272395334835,0.7077024692372927 l -24.925445775935255 19.382177395578218" fill="#8bff24" stroke="none" /><path d="M 116.57777611688842 87.10902102172516 l 16.433112940612613 -12.77848801741539 a41.81674703045984,41.81674703045984 0 0,0 0.43578630481387143,0.570458261929676 l -16.650051222780792 12.494508842244832" fill="#fff116" stroke="none" /><path d="M 116.7966241395341 87.39550010848427 l 8.894822886828315 -6.674840919265156 a32.120763260025875,32.120763260025875 0 0,0 0.3271698281307421,0.4438687066441729 l -9.008094734542883 6.5211659033521086" fill="#ff6d0a" stroke="none" /><line stroke="#e1ed5e" stroke-width="0.3" x1="172.87174338648825" x2="177.1583165268699" y1="56.24261187166439" y2="53.66864786411523" /><path d="M 173.72905801456457 55.72781907015455 a86.0,86.0 0 0,1 12.242430191666344,42.057860355516425" fill="none" id="id99" stroke="none" /><text fill="#e1ed5e" style="font-size:6.75px; font-family:Arial;" text-anchor="middle"><textPath startOffset="22.145653131862474" xlink:href="#id99">March</textPath></text><path d="M 118.00360718960297 89.18935116829356 l 20.632476845796212 -12.389209526690186 a45.06640009408444,45.06640009408444 0 0,0 0.39256330319135024,0.6666583113544042 l -20.84211385911733 12.033200047042225" fill="#e4ff1a" stroke="none" /><path d="M 118.8641267826498 90.77261029715802 l 11.784699313547772 -5.7644869730696735 a34.11901093731625,34.11901093731625 0 0,0 0.25283932379709684,0.5283369427961542 l -11.881917895304781 5.5613375282084165" fill="#ff890c" stroke="none" /><path d="M 119.0197475246899 91.09779779509293 l 57.0592425740697 -26.706606614721228 a84.0,84.0 0 0,0 0.6000621405797943,1.3112440711412632 l -57.50928917950454 25.72317356136528" fill="#4dd2ff" stroke="none" /><path d="M 119.16976305983485 91.42560881287824 l 19.06943912050019 -8.529517565126358 a41.89009761260732,41.89009761260732 0 0,0 0.2879767035362999,0.6589470543922065 l -19.213049706053457 8.200908440958303" fill="#fff216" stroke="none" /><path d="M 119.4528033332814 92.08871423366111 l 11.72315654718733 -4.767705710037676 a33.655568622839,33.655568622839 0 0,0 0.21305789940422587,0.537045086219638 l -11.803273121557678 4.565759606604473" fill="#ff830c" stroke="none" /><path d="M 119.94978838288452 93.4421083053983 l 19.42975185518061 -6.386945358707479 a41.4525873221216,41.4525873221216 0 0,0 0.2164126758489937,0.6779096247632562 l -19.536529246806857 6.052466700252835" fill="#ffec16" stroke="none" /><path d="M 120.35273937422433 94.82641323984039 l 6.876679123271525 -1.748024942091092 a28.09537222156886,28.09537222156886 0 0,0 0.11480635160849077,0.468449092326184 l -6.905673001396307 1.6297200251568131" fill="#ff3304" stroke="none" /><path d="M 120.51834098615036 95.52812308129327 l 14.574344345654675 -3.1764105162600247 a35.91647065741503,35.91647065741503 0 0,0 0.12612203644701162,0.6035396010901076 l -14.626724092926054 2.925754463884513" fill="#ffa20f" stroke="none" /><path d="M 120.65975698304385 96.23510406497455 l 24.81758470705111 -4.522590650868366 a46.22630248147713,46.22630248147713 0 0,0 0.13556453690385478,0.7819002239876558 l -24.8915640614472 4.095897393960118" fill="#d6ff1c" stroke="none" /><path d="M 120.82617615685814 97.30363454192243 l 3.6889739172823575 -0.4776115294229724 a24.719763612842527,24.719763612842527 0 0,0 0.050873171976253975,0.42130284295213705 l -3.6966291755182747 0.4142150095474224" fill="#ff0000" stroke="none" /><path d="M 120.93736805541906 98.37931529534042 l 14.830615186332615 -1.1479834107878866 a35.87497941902858,35.87497941902858 0 0,0 0.04225737543388314,0.6144129645895977 l -14.848136522931563 0.8932270220439545" fill="#ffa20e" stroke="none" /><line stroke="#e1ed5e" stroke-width="0.3" x1="184.99686870605535" x2="189.99668451229388" y1="99.2704041080226" y2="99.22748670261217" /><path d="M 185.99683186730306 99.26182062694052 a86.0,86.0 0 0,1 -10.086455211305974,41.156179273409016" fill="none" id="id100" stroke="none" /><text fill="#e1ed5e" style="font-size:6.75px; font-family:Arial;" text-anchor="middle"><textPath startOffset="21.40746469413373" xlink:href="#id100">April</textPath></text><path d="M 120.99922638620191 100.18025310272382 l 10.102744360893187 0.0867199097521611 a31.103116547101024,31.103116547101024 0 0,0 -0.009165893535539269,0.5338673467798087 l -10.09976703575898 -0.2601341725010409" fill="#ff5f08" stroke="none" /><path d="M 120.98066250479742 100.90099992219065 l 7.536679358788485 0.32365744000178903 a28.543625779136775,28.543625779136775 0 0,0 -0.025224967886056,0.4893576380851587 l -7.530012801445856 -0.4529868714636784" fill="#ff3905" stroke="none" /><path d="M 120.96210409425399 101.26102812881392 l 22.324529923689433 1.3429882835109628 a43.36488886275433,43.36488886275433 0 0,0 -0.05107978928484211,0.7426889257288413 l -22.29818617323952 -1.7260206333941475" fill="#faff18" stroke="none" /><path d="M 120.93736805541906 101.62068470465957 l 14.072334286336579 1.089287673424608 a35.11443020110549,35.11443020110549 0 0,0 -0.05167903945472437,0.6005887743635074 l -14.051561624184114 -1.3306974951637727" fill="#ff970e" stroke="none" /><path d="M 120.86939407059847 102.33845913500097 l 8.712720452924556 0.9762784997459699 a29.76724685405151,29.76724685405151 0 0,0 -0.0612608717536046,0.5073278985546099 l -8.694677494911287 -1.1257000752239885" fill="#ff4b07" stroke="none" /><path d="M 120.43855184770803 104.8234425847677 l 6.83969178909246 1.6141486387106327 a28.02757850170528,28.02757850170528 0 0,0 -0.11452932557095334,0.46731873155768333 l -6.81097493700521 -1.7313231948764156" fill="#ff3204" stroke="none" /><path d="M 120.16314734710363 105.8691983318838 l 13.046170499771854 3.79755009555746 a34.58763965659179,34.58763965659179 0 0,0 -0.1708360603604807,0.5686576835226385 l -12.979058119407743 -4.020945382670822" fill="#ff900d" stroke="none" /><path d="M 118.8641267826498 109.22738970284198 l 4.539104245243032 2.22030334376275 a26.053040103492883,26.053040103492883 0 0,0 -0.19996339357043816,0.40006073730784963 l -4.500320938460862 -2.2978959372343453" fill="#ff1402" stroke="none" /><path d="M 118.70294669586154 109.54985784667822 l 6.6099288622525645 3.375076774673967 a28.421745266376576,28.421745266376576 0 0,0 -0.2256036000740194,0.43262465009162304 l -6.551017193203595 -3.488047667870093" fill="#ff3805" stroke="none" /><line stroke="#e1ed5e" stroke-width="0.3" x1="174.33088141563837" x2="178.70328620479359" y1="141.23008692659167" y2="143.65538615756765" /><path d="M 175.20536237346943 141.71514677278685 a86.0,86.0 0 0,1 -30.301960400862466,31.631185727798858" fill="none" id="id101" stroke="none" /><text fill="#e1ed5e" style="font-size:6.75px; font-family:Arial;" text-anchor="middle"><textPath startOffset="22.145653131862474" xlink:href="#id101">May</textPath></text><path d="M 118.18653347947321 110.5 l 4.347186792547253 2.509849464894741 a26.019698929789485,26.019698929789485 0 0,0 -0.22665176136985263,0.3849042416139373 l -4.303461321047635 -2.584104874802228" fill="#ff1402" stroke="none" /><path d="M 118.00360718960297 110.81064883170644 l 29.82854493073601 17.9111841871993 a55.79299658943902,55.79299658943902 0 0,0 -0.5000966341506082,0.8168702681638893 l -29.51668033213 -18.420591571487748" fill="#68ff28" stroke="none" /><path d="M 117.81537515405839 111.11811171558189 l 32.06421821873703 20.010443627817985 a58.79592496765847,58.79592496765847 0 0,0 -0.5417129183682635,0.8516626837990741 l -31.715987608742875 -20.55791998629573" fill="#48ff2c" stroke="none" /><path d="M 115.16444852881244 114.52719865689866 l 10.792564590963353 10.339032740454892 a35.945736798776906,35.945736798776906 0 0,0 -0.43068675337768586,0.44192255039761386 l -10.61349103643486 -10.522777982920243" fill="#ffa30f" stroke="none" /><path d="M 114.91283532996324 114.78537596483092 l 10.526676341758487 10.436705289722646 a35.823485828531105,35.823485828531105 0 0,0 -0.4367191343435078,0.43298651459864024 l -10.345965287285013 -10.615871814549948" fill="#ffa10e" stroke="none" /><path d="M 114.65682725009322 115.03919595460226 l 3.7796101506855693 3.87821298008425 a26.415347524403153,26.415347524403153 0 0,0 -0.3274591312396074,0.3136984403023176 l -3.71247853358065 -3.942523550692148" fill="#ff1a02" stroke="none" /><path d="M 113.59037401385872 116.0094264158162 l 11.751126348746658 13.84279729103665 a39.15797365635658,39.15797365635658 0 0,0 -0.5161872442996136,0.43062175803026226 l -11.511764770285149 -14.042481232978782" fill="#ffce13" stroke="none" /><path d="M 113.31354834802062 116.24036423190432 l 8.447284371985022 10.304313424595486 a34.32424438433494,34.32424438433494 0 0,0 -0.45888119852571824,0.3696422110366444 l -8.269152403104052 -10.447803929425534" fill="#ff8c0c" stroke="none" /><path d="M 112.7482090630111 116.68781488649013 l 3.9528743508269937 5.174439414203874 a27.511531224273785,27.511531224273785 0 0,0 -0.37775560947654624,0.28347485179832327 l -3.863465752439681 -5.241533293266213" fill="#ff2a04" stroke="none" /><path d="M 112.16784306229584 117.11559508785304 l 5.503433992841403 7.741269124852358 a30.49815947312713,30.49815947312713 0 0,0 -0.42930503097247247,0.2996882531277101 l -5.369733870695173 -7.83460219378519" fill="#ff5608" stroke="none" /><path d="M 110.96478420261333 117.91015095944535 l 6.198204368844081 10.1243010233647 a32.87093966835235,32.87093966835235 0 0,0 -0.4837776529840224,0.2904945805559302 l -6.023493959302622 -10.229209604456553" fill="#ff780b" stroke="none" /><line stroke="#e1ed5e" stroke-width="0.3" x1="143.1302829299769" x2="145.66735839644613" y1="173.24464959558577" y2="177.55315839532614" /><path d="M 143.63769802327073 174.10635135553383 a86.0,86.0 0 0,1 -40.68552437913181,11.842963189579606" fill="none" id="id102" stroke="none" /><text fill="#e1ed5e" style="font-size:6.75px; font-family:Arial;" text-anchor="middle"><textPath startOffset="21.407464694133747" xlink:href="#id102">June</textPath></text><path d="M 109.06512990194946 118.94263497670748 l 12.87791095861616 26.909880960354172 a50.832570857344464,50.832570857344464 0 0,0 -0.7903527660880635,0.36992500177986926 l -12.414069478656591 -27.126982193704574" fill="#9fff22" stroke="none" /><path d="M 108.73861861582097 119.09545874513695 l 23.877147455943085 52.17587633027491 a78.37978948606374,78.37978948606374 0 0,0 -1.2282732479457632,0.5493910008011493 l -22.977960805141695 -52.57807108198591" fill="#46fff5" stroke="none" /><path d="M 107.06938296918513 119.77432235084164 l 1.2907464494484184 3.6104475420065443 a24.834234975890862,24.834234975890862 0 0,0 -0.4026625554746893,0.14006693888116414 l -1.2285781219287073 -3.632072913456299" fill="#ff0200" stroke="none" /><path d="M 106.72888874123015 119.89276391827305 l 4.098940205634802 12.11778838401541 a33.792267435022936,33.792267435022936 0 0,0 -0.5510992018962989,0.18115725388435397 l -3.890318266090769 -12.186366559301783" fill="#ff850c" stroke="none" /><path d="M 103.2317021107853 120.74984581791261 l 2.0701440735064565 13.291809973069087 a34.45205221686464,34.45205221686464 0 0,0 -0.5851515279070809,0.0859971238028049 l -1.8416674399916901 -13.325388170170775" fill="#ff8e0d" stroke="none" /><path d="M 102.875027216393 120.80226474461374 l 6.332380155875811 45.81794833627098 a67.25346936375396,67.25346936375396 0 0,0 -1.144981278682444,0.1482407498492299 l -5.544921055302591 -45.91990068232061" fill="#37ff7a" stroke="none" /><path d="M 102.51750503828377 120.84855314841334 l 3.3549759016601577 27.784013272557992 a48.985840291661766,48.985840291661766 0 0,0 -0.8357079955437829,0.09364282402074983 l -2.8775320045155754 -27.837511857085715" fill="#b5ff20" stroke="none" /><path d="M 102.15924093988457 120.88869738790638 l 0.7754145797935451 7.501432660101317 a28.541403034223215,28.541403034223215 0 0,0 -0.48778676240890295,0.046193913550108115 l -0.6465282539996269 -7.513638329156609" fill="#ff3905" stroke="none" /><line stroke="#e1ed5e" stroke-width="0.3" x1="101.45913802915013" x2="101.54496967792366" y1="184.9874750549273" y2="189.98673829345242" /><path d="M 101.47630435890484 185.9873277026323 a86.0,86.0 0 0,1 -42.54439059252881,-10.42667462771756" fill="none" id="id103" stroke="none" /><text fill="#e1ed5e" style="font-size:6.75px; font-family:Arial;" text-anchor="middle"><textPath startOffset="22.145653131862474" xlink:href="#id103">July</textPath></text><path d="M 98.19965949673042 120.92268563240118 l -1.907094787845443 22.163332238993764 a43.24523109490768,43.24523109490768 0 0,0 -0.7390824914989658,-0.06999188036612165 l 2.287276842729424 -22.127328603122457" fill="#fbff18" stroke="none" /><path d="M 97.48249496171623 120.84855314841334 l -2.8786691592940548 23.839510170416396 a45.012683758673404,45.012683758673404 0 0,0 -0.7663348923781808,-0.09921739437739548 l 3.2874818735630296 -23.786581179838603" fill="#e5ff1a" stroke="none" /><path d="M 96.41257539226777 120.69131181640829 l -3.211785010002675 18.52472243904276 a39.80108785134659,39.80108785134659 0 0,0 -0.6721934965597913,-0.12249604701669792 l 3.5293132401135234 -18.466858218094696" fill="#ffd614" stroke="none" /><path d="M 94.30408787586889 120.21278271476187 l -2.994925733950111 10.627934874682916 a32.041855815594495,32.041855815594495 0 0,0 -0.5281413131085818,-0.1537342390319403 l 3.1769270594403 -10.57495694134846" fill="#ff6c0a" stroke="none" /><path d="M 93.95794788825049 120.11202640906438 l -9.622978786400342 32.031766675694925 a54.446013171821704,54.446013171821704 0 0,0 -0.8928092685005343,-0.2765945935949558 l 10.17142868777251 -31.86185549429332" fill="#76ff27" stroke="none" /><line stroke="#e1ed5e" stroke-width="0.3" x1="58.13341422392154" x2="55.67067388415222" y1="173.97424548756322" y2="178.32567169271397" /><path d="M 57.64086615596768 174.84453072859336 a86.0,86.0 0 0,1 -31.369924170532247,-30.572349798747897" fill="none" id="id104" stroke="none" /><text fill="#e1ed5e" style="font-size:6.75px; font-family:Arial;" text-anchor="middle"><textPath startOffset="22.145653131862474" xlink:href="#id104">August</textPath></text><path d="M 89.65649057296885 118.27599006163327 l -3.6854910632807565 6.511909571884076 a28.482500294013878,28.482500294013878 0 0,0 -0.4234500536171196,-0.24447900244420734 l 3.7967335847582757 -6.447683672163698" fill="#ff3905" stroke="none" /><path d="M 87.54013794807813 116.9041958592261 l -9.743178381316138 13.21849270584351 a37.421268963895095,37.421268963895095 0 0,0 -0.5138243360431168,-0.3855833609248833 l 9.968655706270022 -13.049290317654611" fill="#ffb710" stroke="none" /><path d="M 84.3458050057657 113.99807769240083 l -16.311807419488982 14.586118778103 a42.88218275902623,42.88218275902623 0 0,0 -0.48597547856923046,-0.5529508853236309 l 16.559793962016805 -14.30395561496807" fill="#fffe18" stroke="none" /><path d="M 84.1078160697243 113.72728997021213 l -41.07091311450426 35.476076550443416 a75.2712807244502,75.2712807244502 0 0,0 -0.8362475716569784,-0.9850975366973088 l 41.67385524966834 -34.76581223129656" fill="#42ffd4" stroke="none" /><path d="M 83.8745106332314 113.45245675266167 l -23.601378506868585 19.689109362544073 a51.735746207220984,51.735746207220984 0 0,0 -0.5630652073677783,-0.6868479998666163 l 23.935890533474993 -19.281059080978963" fill="#95ff23" stroke="none" /><line stroke="#e1ed5e" stroke-width="0.3" x1="26.387840678322732" x2="22.057713659400548" y1="142.50000000000003" y2="145.00000000000006" /><path d="M 25.521815274538298 143.00000000000003 a86.0,86.0 0 0,1 -11.493303480769221,-40.785679425670985" fill="none" id="id105" stroke="none" /><text fill="#e1ed5e" style="font-size:6.75px; font-family:Arial;" text-anchor="middle"><textPath startOffset="21.40746469413373" xlink:href="#id105">September</textPath></text><path d="M 81.1358732173502 109.22738970284198 l -15.828628550218838 7.742575406603762 a38.62081030224627,38.62081030224627 0 0,0 -0.2861999598773829,-0.5980478414478901 l 15.959207768056132 -7.469715063090766" fill="#ffc712" stroke="none" /><path d="M 80.9802524753101 108.90220220490708 l -13.435059338768077 6.28828614645812 a35.83385863812772,35.83385863812772 0 0,0 -0.25598264190033343,-0.5593682700637911 l 13.541026445523467 -6.05672889417964" fill="#ffa10e" stroke="none" /><path d="M 80.41425534168474 107.57618678355246 l -14.195230847116598 5.491020239955069 a36.220245795601556,36.220245795601556 0 0,0 -0.21933828047141432,-0.5818208479057649 l 14.287399811402448 -5.246531111855159" fill="#ffa60f" stroke="none" /><path d="M 80.16572619554312 106.89939002012753 l -10.519536197771309 3.6592407554122217 a32.137804304363165,32.137804304363165 0 0,0 -0.1767802340861081,-0.5226193502865286 l 10.580801853429785 -3.4781197306515317" fill="#ff6e0a" stroke="none" /><path d="M 80.05021161711548 106.5578916946017 l -14.133895999853438 4.64609234999821 a35.877943078913326,35.877943078913326 0 0,0 -0.18730897556114928,-0.5867426981312595 l 14.211569691191842 -4.402780618175559" fill="#ffa20e" stroke="none" /><path d="M 79.48165901384964 104.47187691870673 l -19.551302864287518 4.26111546096573 a41.010261084323176,41.010261084323176 0 0,0 -0.14400907295468457,-0.6891355459594214 l 19.621569648066572 -3.9248634637208992" fill="#ffe615" stroke="none" /><path d="M 79.0935383218832 101.97986365728391 l -36.902129999806135 3.494670077981543 a58.06723509349641,58.06723509349641 0 0,0 -0.08545942269993269,-0.9931680325082497 l 36.95668304520381 -2.8606809980976315" fill="#4fff2b" stroke="none" /><line stroke="#e1ed5e" stroke-width="0.3" x1="15.003131293944662" x2="10.003315487706104" y1="100.72959589197737" y2="100.7725132973878" /><path d="M 14.003168132696942 100.73817937305945 a86.0,86.0 0 0,1 10.791469493833604,-42.45332614584628" fill="none" id="id106" stroke="none" /><text fill="#e1ed5e" style="font-size:6.75px; font-family:Arial;" text-anchor="middle"><textPath startOffset="22.145653131862435" xlink:href="#id106">October</textPath></text><path d="M 79.00696218219943 99.45929381324524 l -5.210608763315079 -0.13420679844124708 a26.212336822298013,26.212336822298013 0 0,0 0.015446946319996189,-0.44972098800993954 l 5.207537129998233 0.22363405101532513" fill="#ff1702" stroke="none" /><path d="M 79.01933749520258 99.09900007780938 l -9.10412212677303 -0.39097017675017537 a30.112513230624486,30.112513230624486 0 0,0 0.02661144681087555,-0.5162549588257984 l 9.096069090505583 0.5471969289526858" fill="#ff5007" stroke="none" /><path d="M 79.06263194458094 98.37931529534042 l -7.434698604978189 -0.5754926923455158 a28.45693872750794,28.45693872750794 0 0,0 0.04188099453236028,-0.48672064033527296 l 7.423723987748086 0.7030343800564695" fill="#ff3805" stroke="none" /><path d="M 79.0935383218832 98.0201363427161 l -3.7131528197450314 -0.35163943258028396 a24.729765964953547,24.729765964953547 0 0,0 0.04365110756234326,-0.4222848685730611 l 3.7065693197010243 0.41532882343625777" fill="#ff0000" stroke="none" /><path d="M 79.22317932658666 96.9465228501225 l -14.731555098080136 -2.1650312904567675 a35.889797718452314,35.889797718452314 0 0,0 0.09481487737519738,-0.608779528352495 l 14.69221872856667 2.4175990007407124" fill="#ffa20f" stroke="none" /><path d="M 79.2786578344484 96.59031103205396 l -7.394909185154222 -1.216829492324151 a28.494354933552863,28.494354933552863 0 0,0 0.08356333566780506,-0.4819711140395933 l 7.372931031994183 1.3435936392843368" fill="#ff3905" stroke="none" /><path d="M 79.407916724674 95.88100663000787 l -13.54711093002586 -2.709801594974419 a34.81547101023168,34.81547101023168 0 0,0 0.12225583481058948,-0.5850384266790724 l 13.498597384390903 2.9419564729389007" fill="#ff930d" stroke="none" /><path d="M 79.73907114497095 94.47779374421319 l -17.991790603983052 -4.903742535054626 a39.64808890979654,39.64808890979654 0 0,0 0.18461190095052124,-0.6551225087661058 l 17.90496021095795 5.211872967723744" fill="#ffd413" stroke="none" /><path d="M 80.05021161711548 93.44210830539832 l -10.643445549751442 -3.498711957894369 a32.20374573679878,32.20374573679878 0 0,0 0.17714295774176475,-0.5236916783226971 l 10.581817170437313 3.6809053106912275" fill="#ff6e0a" stroke="none" /><path d="M 80.5471966667186 92.08871423366112 l -13.8487121836629 -5.632150683047835 a35.950182288604026,35.950182288604026 0 0,0 0.23739815083961002,-0.5696691402527564 l 13.749988188286814 5.869052332741856" fill="#ffa30f" stroke="none" /><path d="M 81.63589988554816 89.8137432299009 l -42.213673342004505 -23.415213007489143 a69.27283311772317,69.27283311772317 0 0,0 0.5857401843881129,-1.0349467812733397 l 41.80549979259502 24.13641655886159" fill="#3aff92" stroke="none" /><line stroke="#e1ed5e" stroke-width="0.3" x1="26.387840678322718" x2="22.05771365940052" y1="57.49999999999999" y2="54.99999999999999" /><path d="M 25.521815274538284 56.99999999999999 a86.0,86.0 0 0,1 29.574782752854787,-30.34633250058573" fill="none" id="id107" stroke="none" /><text fill="#e1ed5e" style="font-size:6.75px; font-family:Arial;" text-anchor="middle"><textPath startOffset="21.40746469413373" xlink:href="#id107">November</textPath></text><path d="M 82.98947788004972 87.6856937992154 l -37.65100923891855 -27.25642712593985 a67.48130071739386,67.48130071739386 0 0,0 0.6873387590146453,-0.9325070338342012 l 37.17756846032008 27.898740469042917" fill="#38ff7d" stroke="none" /><path d="M 84.58840730492382 85.73525988315684 l -5.501356783221211 -5.091973708061648 a28.49620722098083,28.49620722098083 0 0,0 0.335365303586083,-0.35614633068272894 l 5.413135645898856 5.185661498688888" fill="#ff3905" stroke="none" /><path d="M 84.83555147118756 85.47280134310135 l -5.4409570497621385 -5.212313774244295 a28.534734799482536,28.534734799482536 0 0,0 0.341891233391015,-0.3508105244329359 l 5.3506790152203205 5.304946990744962" fill="#ff3905" stroke="none" /><path d="M 86.40962598614128 83.9905735841838 l -16.471475765873507 -19.403357035262307 a46.45191109020345,46.45191109020345 0 0,0 0.6123372008093988,-0.5108334714424295 l 16.135964230902196 19.68325269061662" fill="#d3ff1c" stroke="none" /><path d="M 86.68645165197937 83.75963576809568 l -4.807626743807755 -5.864522918271457 a28.58326473009526,28.58326473009526 0 0,0 0.3821299787479202,-0.30781686131742886 l 4.706245994704589 5.9461880733822845" fill="#ff3a05" stroke="none" /><path d="M 87.54013794807813 83.09580414077388 l -2.2061560992909532 -2.993074453235079 a24.718281782900153,24.718281782900153 0 0,0 0.34372417483495515,-0.24882979532799793 l 2.1544509140820303 3.030505019936156" fill="#ff0000" stroke="none" /><line stroke="#e1ed5e" stroke-width="0.3" x1="56.869717070023135" x2="54.33264160355391" y1="26.7553504044142" y2="22.446841604673864" /><path d="M 56.362301976729285 25.89364864446614 a86.0,86.0 0 0,1 42.16139366436587,-11.88097634709845" fill="none" id="id108" stroke="none" /><text fill="#e1ed5e" style="font-size:6.75px; font-family:Arial;" text-anchor="middle"><textPath startOffset="22.145653131862474" xlink:href="#id108">December</textPath></text><path d="M 93.27111125876988 80.10723608172694 l -2.379999163736283 -7.036044629449162 a28.427672586146066,28.427672586146066 0 0,0 0.46361102296900464,-0.15239815173491125 l 2.258865403119517 7.075863702586101" fill="#ff3805" stroke="none" /><path d="M 95.70440661134978 79.44403061299748 l -1.5194973296932974 -7.271344786807737 a28.428413501117255,28.428413501117255 0 0,0 0.4785497182582657,-0.09572334621816776 l 1.3944511259040548 7.296357529688771" fill="#ff3805" stroke="none" /><path d="M 98.1996594967304 79.07731436759882 l -0.9649490564066803 -11.214170720379485 a32.25560978478184,32.25560978478184 0 0,0 0.5520793451944037,-0.04273443291184894 l 0.7723007164370593 11.229082920286388" fill="#ff6f0a" stroke="none" /></svg>