<?xml version="1.0" encoding="utf-8" ?>
<svg baseProfile="full" height="200mm" version="1.1" viewBox="0,0,200,200" width="200mm" xmlns="http://www.w3.org/2000/svg" xmlns:ev="http://www.w3.org/2001/xml-events" xmlns:xlink="http://www.w3.org/1999/xlink"><defs /><rect fill="#1a1a1a" height="200" width="200" x="0" y="0" /><text alignment-baseline="middle" fill="#e1ed5e" style="dominant-baseline: central; font-size:9.0px; font-family:Arial;" text-anchor="middle" x="100.0" y="100.0">2023</text><line stroke="#e1ed5e" stroke-width="0.3" x1="100.0" x2="100.0" y1="15.0" y2="10.0" /><path d="M 100.0 14.0 a86.0,86.0 0 0,1 42.46469731375804,11.215312516191453" fill="none" id="id133" stroke="none" /><text fill="#e1ed5e" style="font-size:6.75px; font-family:Arial;" text-anchor="middle"><textPath startOffset="22.20632615414155" xlink:href="#id133">January</textPath></text><path d="M 102.52436894288641 79.15227682838746 l 4.627601316641801 -38.21745290830067 a59.49660245715152,59.49660245715152 0 0,0 1.0156502707006054,0.1318605544948846 l -5.284766315850252 38.13213403064165" fill="#5dff2a" stroke="none" /><path d="M 107.4271985657038 80.35727306442388 l 22.28159569711141 -58.92818080672834 a84.0,84.0 0 0,0 1.3480673400013319,0.5230291844378128 l -23.292646202112408 58.53590891839998" fill="#4dd2ff" stroke="none" /><path d="M 108.76106565485865 80.91482961587045 l 3.9956997296518257 -8.704261918404244 a30.57756711663886,30.57756711663886 0 0,0 0.4764593431434839,0.2237040502281565 l -4.144937284094907 8.634192885536086" fill="#ff0000" stroke="none" /><line stroke="#e1ed5e" stroke-width="0.3" x1="143.23703022742887" x2="145.7803849466894" y1="26.81831364943548" y2="22.513508569990506" /><path d="M 143.74570117128098 25.957352633546492 a86.0,86.0 0 0,1 28.547481713284135,27.462654790039103" fill="none" id="id134" stroke="none" /><text fill="#e1ed5e" style="font-size:6.75px; font-family:Arial;" text-anchor="middle"><textPath startOffset="19.985693538727396" xlink:href="#id134">February</textPath></text><path d="M 111.60114157652 82.49532879139004 l 21.487538353052347 -32.422007047465584 a59.89602608827544,59.89602608827544 0 0,0 0.8545032495119345,0.5769644084907717 l -22.042446296970823 32.047330726676144" fill="#58ff2a" stroke="none" /><path d="M 115.4437574822437 85.77008943001954 l 32.14517511801638 -29.61863184601623 a64.71013195813742,64.71013195813742 0 0,0 0.7477297636294072,0.8256618806477429 l -32.650248522261826 29.060917178098936" fill="#31ff41" stroke="none" /><path d="M 116.60985879189232 87.15038557335679 l 12.091211328046109 -9.353926813170244 a36.28703170028818,36.28703170028818 0 0,0 0.37794509003349147,0.4973314362585944 l -12.250432358303714 9.144410601030614" fill="#ff5e08" stroke="none" /><line stroke="#e1ed5e" stroke-width="0.3" x1="172.23445277983987" x2="176.4835382374775" y1="55.19839476539836" y2="52.563006222186495" /><path d="M 173.08426987136738 54.67131705675599 a86.0,86.0 0 0,1 12.851231095245387,41.99856678651699" fill="none" id="id135" stroke="none" /><text fill="#e1ed5e" style="font-size:6.75px; font-family:Arial;" text-anchor="middle"><textPath startOffset="22.20632615414155" xlink:href="#id135">March</textPath></text><path d="M 119.47837535516314 92.15188598940014 l 18.396473177844648 -7.412200261065243 a40.8335810708327,40.8335810708327 0 0,0 0.257069657094885,0.6542142373785869 l -18.521336384821232 7.094437018790871" fill="#ffa50f" stroke="none" /><line stroke="#e1ed5e" stroke-width="0.3" x1="184.98032266829074" x2="189.97916517819016" y1="98.17113171792111" y2="98.06355123074" /><path d="M 185.9800911702706 98.14961562048488 a86.0,86.0 0 0,1 -9.607161424134198,41.387399972396054" fill="none" id="id136" stroke="none" /><text fill="#e1ed5e" style="font-size:6.75px; font-family:Arial;" text-anchor="middle"><textPath startOffset="21.466115282336823" xlink:href="#id136">April</textPath></text><path d="M 120.99980553446 99.90962569577887 l 28.89105659037151 -0.12433491982978313 a49.891324131654784,49.891324131654784 0 0,0 -0.0036960032467570985,0.8588209901648088 l -28.888916289835247 -0.37299554853871036" fill="#d7ff1c" stroke="none" /><line stroke="#e1ed5e" stroke-width="0.3" x1="174.80103733775053" x2="179.2010983576182" y1="140.37084112569926" y2="142.7455964860345" /><path d="M 175.68104954172406 140.8457921977663 a86.0,86.0 0 0,1 -30.038265399797805,32.042727171017184" fill="none" id="id137" stroke="none" /><text fill="#e1ed5e" style="font-size:6.75px; font-family:Arial;" text-anchor="middle"><textPath startOffset="22.206326154141568" xlink:href="#id137">May</textPath></text><path d="M 118.30583269289576 110.29060199501025 l 20.00536252625257 11.24599066195181 a43.949658728954944,43.949658728954944 0 0,0 -0.376393256770795,0.6562733694619113 l -19.808817273329396 -11.588683877272036" fill="#ffd313" stroke="none" /><line stroke="#e1ed5e" stroke-width="0.3" x1="143.8653032363475" x2="146.44561519142675" y1="172.8068346515853" y2="177.08958963109032" /><path d="M 144.38136562736335 173.6633856474863 a86.0,86.0 0 0,1 -40.68145358897372,12.25698825130547" fill="none" id="id138" stroke="none" /><text fill="#e1ed5e" style="font-size:6.75px; font-family:Arial;" text-anchor="middle"><textPath startOffset="21.466115282336833" xlink:href="#id138">June</textPath></text><line stroke="#e1ed5e" stroke-width="0.3" x1="102.19456741930631" x2="102.32365962044197" y1="184.97166512339345" y2="189.96999836594603" /><path d="M 102.22038585953345 185.97133177190398 a86.0,86.0 0 0,1 -42.740103519485714,-10.115201625700543" fill="none" id="id139" stroke="none" /><text fill="#e1ed5e" style="font-size:6.75px; font-family:Arial;" text-anchor="middle"><textPath startOffset="22.20632615414155" xlink:href="#id139">July</textPath></text><path d="M 99.09653310690486 120.98055641714683 l -0.9765746721738956 22.678285349127385 a43.6993022903079,43.6993022903079 0 0,0 -0.7512366442289001,-0.038830353575909464 l 1.3667993848162847 -22.658115188789274" fill="#ffd013" stroke="none" /><line stroke="#e1ed5e" stroke-width="0.3" x1="58.666819895761336" x2="56.23545636021788" y1="174.27360380694188" y2="178.64263932499728" /><path d="M 58.180547188652646 175.14741091055294 a86.0,86.0 0 0,1 -31.652253787137756,-30.449443065178592" fill="none" id="id140" stroke="none" /><text fill="#e1ed5e" style="font-size:6.75px; font-family:Arial;" text-anchor="middle"><textPath startOffset="22.20632615414155" xlink:href="#id140">August</textPath></text><line stroke="#e1ed5e" stroke-width="0.3" x1="26.63291911575756" x2="22.317208475507996" y1="142.92168965132927" y2="145.44649492493687" /><path d="M 25.769776987707644 143.4266507060508 a86.0,86.0 0 0,1 -11.730757126820373,-40.83630448921669" fill="none" id="id141" stroke="none" /><text fill="#e1ed5e" style="font-size:6.75px; font-family:Arial;" text-anchor="middle"><textPath startOffset="21.46611528233685" xlink:href="#id141">September</textPath></text><path d="M 79.0235259727143 100.99374915477108 l -9.605971543027607 0.4550777260859763 a30.616745032610346,30.616745032610346 0 0,0 -0.020408053785482643,-0.5266411870547641 l 9.61238172966429 -0.2896592920172153" fill="#ff0100" stroke="none" /><path d="M 79.0095281055655 100.63252640178507 l -23.80363448595919 0.7172981792183064 a44.81443955710601,44.81443955710601 0 0,0 -0.016598281032461564,-0.7712568978855153 l 23.81245482967666 -0.30745146554266223" fill="#ffe015" stroke="none" /><line stroke="#e1ed5e" stroke-width="0.3" x1="15.007084014347285" x2="10.007500721073583" y1="101.09737516637583" y2="101.16192664675087" /><path d="M 14.007167355692545 101.11028546245083 a86.0,86.0 0 0,1 10.666146001902534,-42.60595125391555" fill="none" id="id142" stroke="none" /><text fill="#e1ed5e" style="font-size:6.75px; font-family:Arial;" text-anchor="middle"><textPath startOffset="22.20632615414155" xlink:href="#id142">October</textPath></text><line stroke="#e1ed5e" stroke-width="0.3" x1="26.266209847984243" x2="21.928928074336255" y1="57.711370442889674" y2="55.22380399835377" /><path d="M 25.398753493254645 57.213857153982495 a86.0,86.0 0 0,1 29.58750427330803,-30.492523968695096" fill="none" id="id143" stroke="none" /><text fill="#e1ed5e" style="font-size:6.75px; font-family:Arial;" text-anchor="middle"><textPath startOffset="21.46611528233685" xlink:href="#id143">November</textPath></text><path d="M 82.54541684631803 88.32363383020206 l -38.919775744572 -26.035657731773473 a67.82525405733354,67.82525405733354 0 0,0 0.6575029683750052,-0.9648044744853775 l 38.46584831052826 26.701740229529264" fill="#36ff6c" stroke="none" /><line stroke="#e1ed5e" stroke-width="0.3" x1="56.762969772571076" x2="54.21961505331055" y1="26.818313649435495" y2="22.513508569990535" /><path d="M 56.25429882871897 25.957352633546506 a86.0,86.0 0 0,1 42.265352541879196,-11.944610805530505" fill="none" id="id144" stroke="none" /><text fill="#e1ed5e" style="font-size:6.75px; font-family:Arial;" text-anchor="middle"><textPath startOffset="22.20632615414155" xlink:href="#id144">December</textPath></text><path d="M 91.90106846888425 80.62456947434976 l -10.915684147655789 -26.11407184148764 a49.30365539208251,49.30365539208251 0 0,0 0.7858442260945637,-0.32056559119739303 l 10.464556051972844 26.29809831886861" fill="#dfff1b" stroke="none" /><path d="M 94.28887869178378 79.79150937346287 l -5.304768053903436 -18.770631844054396 a40.50582435916881,40.50582435916881 0 0,0 0.6725936406083487,-0.18384524935023158 l 4.980876524071364 18.859163634230924" fill="#ffa00e" stroke="none" /></svg>