<?xml version="1.0" encoding="utf-8" ?>
<svg baseProfile="full" height="200mm" version="1.1" viewBox="0,0,200,200" width="200mm" xmlns="http://www.w3.org/2000/svg" xmlns:ev="http://www.w3.org/2001/xml-events" xmlns:xlink="http://www.w3.org/1999/xlink"><defs /><rect fill="#1a1a1a" height="200" width="200" x="0" y="0" /><text alignment-baseline="middle" fill="#e1ed5e" style="dominant-baseline: central; font-size:9.0px; font-family:Arial;" text-anchor="middle" x="100.0" y="100.0">2024</text><line stroke="#e1ed5e" stroke-width="0.3" x1="100.0" x2="100.0" y1="15.0" y2="10.0" /><path d="M 100.0 14.0 a86.0,86.0 0 0,1 42.35913384403234,11.155469271406648" fill="none" id="id145" stroke="none" /><text fill="#e1ed5e" style="font-size:6.75px; font-family:Arial;" text-anchor="middle"><textPath startOffset="22.145653131862478" xlink:href="#id145">January</textPath></text><path d="M 106.72888874123014 80.10723608172694 l 2.441459436384398 -7.217741004758541 a28.619482225931318,28.619482225931318 0 0,0 0.46403659547570497,0.16141601590069862 l -2.5650018039051212 7.174766556289253" fill="#ff0000" stroke="none" /><path d="M 109.06512990194946 81.05736502329252 l 10.919426866871113 -22.81740245658373 a46.2956070883199,46.2956070883199 0 0,0 0.713921802844895,0.3492149288492029 l -11.309508918978075 22.626593777637304" fill="#f6ff19" stroke="none" /><line stroke="#e1ed5e" stroke-width="0.3" x1="143.13028292997686" x2="145.6673583964461" y1="26.7553504044142" y2="22.446841604673864" /><path d="M 143.63769802327073 25.89364864446614 a86.0,86.0 0 0,1 29.32050498858742,28.57503671076993" fill="none" id="id146" stroke="none" /><text fill="#e1ed5e" style="font-size:6.75px; font-family:Arial;" text-anchor="middle"><textPath startOffset="20.669276256404974" xlink:href="#id146">February</textPath></text><path d="M 113.03279911837588 83.53348406188908 l 7.716283493787518 -9.749272123306415 a33.43339607230371,33.43339607230371 0 0,0 0.4469714377003218,0.36004855076344033 l -7.882505701843099 9.615375278749566" fill="#ff4d07" stroke="none" /><path d="M 113.31354834802062 83.75963576809568 l 25.469684630415525 -31.068873936314713 a61.17436698746404,61.17436698746404 0 0,0 0.806411184453784,0.6727368910789872 l -25.9992701490312 30.62707486132386" fill="#40ff2d" stroke="none" /><path d="M 113.86319453409587 84.22622945171908 l 10.590261643628542 -12.049773722933013 a37.042153485564114,37.042153485564114 0 0,0 0.4740248630165465,0.4238759554917493 l -10.795551533468464 11.866202237557877" fill="#ff840c" stroke="none" /><path d="M 114.13192950727249 84.46653392183569 l 20.292284445365812 -22.30477529047535 a51.15426684186228,51.15426684186228 0 0,0 0.6444712417437126,0.5965129599610074 l -20.67218545842349 21.95314458438197" fill="#b7ff1f" stroke="none" /><line stroke="#e1ed5e" stroke-width="0.3" x1="172.87174338648825" x2="177.1583165268699" y1="56.24261187166439" y2="53.66864786411523" /><path d="M 173.72905801456457 55.72781907015455 a86.0,86.0 0 0,1 12.242430191666344,42.057860355516425" fill="none" id="id147" stroke="none" /><text fill="#e1ed5e" style="font-size:6.75px; font-family:Arial;" text-anchor="middle"><textPath startOffset="22.145653131862474" xlink:href="#id147">March</textPath></text><line stroke="#e1ed5e" stroke-width="0.3" x1="184.99686870605535" x2="189.99668451229388" y1="99.2704041080226" y2="99.22748670261217" /><path d="M 185.99683186730306 99.26182062694052 a86.0,86.0 0 0,1 -10.086455211305974,41.156179273409016" fill="none" id="id148" stroke="none" /><text fill="#e1ed5e" style="font-size:6.75px; font-family:Arial;" text-anchor="middle"><textPath startOffset="21.40746469413373" xlink:href="#id148">April</textPath></text><path d="M 120.96210409425399 101.26102812881392 l 39.775813983599534 2.39281419719397 a60.84772186512304,60.84772186512304 0 0,0 -0.07167293386061624,1.0421087282866208 l -39.728877088573846 -3.0752663496349344" fill="#43ff2d" stroke="none" /><path d="M 119.94978838288452 106.5578916946017 l 8.525011669847986 2.8023406641266426 a29.973791682943286,29.973791682943286 0 0,0 -0.16487666238728316,0.4874285556850223 l -8.475649585888338 -2.9482708942858253" fill="#ff1602" stroke="none" /><path d="M 119.4528033332814 107.91128576633889 l 8.987569564472846 3.6551662992318215 a30.702404204694766,30.702404204694766 0 0,0 -0.2027442844659763,0.4865124762531351 l -8.923499435470383 -3.8089112849262343" fill="#ff2203" stroke="none" /><path d="M 118.70294669586154 109.54985784667822 l 8.328287532206682 4.2524829553428125 a30.351148833410278,30.351148833410278 0 0,0 -0.2409186479938036,0.4619932738425705 l -8.254060815237928 -4.394822472289886" fill="#ff1c02" stroke="none" /><line stroke="#e1ed5e" stroke-width="0.3" x1="174.33088141563837" x2="178.70328620479359" y1="141.23008692659167" y2="143.65538615756765" /><path d="M 175.20536237346943 141.71514677278685 a86.0,86.0 0 0,1 -30.301960400862466,31.631185727798858" fill="none" id="id149" stroke="none" /><text fill="#e1ed5e" style="font-size:6.75px; font-family:Arial;" text-anchor="middle"><textPath startOffset="22.145653131862474" xlink:href="#id149">May</textPath></text><path d="M 118.18653347947321 110.5 l 22.63063791756601 13.065804893639681 a47.13160978727937,47.13160978727937 0 0,0 -0.4105528816189835,0.6972085484220307 l -22.40301132581726 -13.45236461035526" fill="#ebff1a" stroke="none" /><path d="M 118.00360718960297 110.81064883170644 l 18.502943714873044 11.110486068027432 a42.58244255832948,42.58244255832948 0 0,0 -0.38168475434357924,0.6234533614973513 l -18.30949099607406 -11.426476545649342" fill="#ffd513" stroke="none" /><path d="M 117.62189284568427 111.42229804090321 l 7.894462809343622 5.117095414822758 a30.407826982492274,30.407826982492274 0 0,0 -0.28768057556895804,0.43558505772943373 l -7.805457794853938 -5.251860350891254" fill="#ff1d02" stroke="none" /><path d="M 117.21940702142032 112.02048342749411 l 6.320529527802847 4.412220487466852 a28.708228275151814,28.708228275151814 0 0,0 -0.28555787783973735,0.4016729165743685 l -6.243856551433149 -4.520070630750725" fill="#ff0100" stroke="none" /><path d="M 114.65682725009322 115.03919595460226 l 19.208620790420113 19.709737118102268 a48.521715970027344,48.521715970027344 0 0,0 -0.6015017952393622,0.57622511331823 l -18.86744650931544 -20.03657436172608" fill="#d9ff1c" stroke="none" /><path d="M 112.7482090630111 116.68781488649013 l 12.836037201731378 16.802784739396092 a42.144678433182996,42.144678433182996 0 0,0 -0.5786805742631049,0.43425269119130616 l -12.545703638557505 -17.020656457851416" fill="#ffce13" stroke="none" /><line stroke="#e1ed5e" stroke-width="0.3" x1="143.1302829299769" x2="145.66735839644613" y1="173.24464959558577" y2="177.55315839532614" /><path d="M 143.63769802327073 174.10635135553383 a86.0,86.0 0 0,1 -40.68552437913181,11.842963189579606" fill="none" id="id150" stroke="none" /><text fill="#e1ed5e" style="font-size:6.75px; font-family:Arial;" text-anchor="middle"><textPath startOffset="21.407464694133747" xlink:href="#id150">June</textPath></text><path d="M 110.65571695917076 118.09573695890943 l 31.967150877512285 54.28721087672828 a84.0,84.0 0 0,0 -1.2488301285584058,0.7210124108953133 l -31.03052828109348 -54.82797018489977" fill="#4dd2ff" stroke="none" /><path d="M 110.02825361518725 118.45085714620011 l 12.529351848059871 23.05259619012082 a47.23750843424837,47.23750843424837 0 0,0 -0.7157858808645158,0.38111566476028225 l -12.131777151408802 -23.26428232260367" fill="#eaff1a" stroke="none" /><path d="M 109.3889696526874 118.78422872680471 l 17.667627542050482 35.34709015859682 a60.51660215206506,60.51660215206506 0 0,0 -0.933222921734822,0.4564860954174724 l -17.05824437105359 -35.64517000411152" fill="#47ff2c" stroke="none" /><path d="M 109.06512990194946 118.94263497670748 l 4.99887556793463 10.445727331166372 a32.580240775595726,32.580240775595726 0 0,0 -0.5065626818102741,0.23709691293647148 l -4.8188241722528495 -10.530000475673377" fill="#ff4006" stroke="none" /><path d="M 108.73861861582097 119.09545874513695 l 4.317639149185592 9.434820750775607 a31.37583010760325,31.37583010760325 0 0,0 -0.4916840553662439,0.21992402399661842 l -4.155041690963721 -9.507548525682076" fill="#ff2c04" stroke="none" /><path d="M 108.4095320186766 119.2426549942271 l 18.446676861025455 42.2096066509258 a67.0644199012749,67.0644199012749 0 0,0 -1.0588671115859454,0.4519674058055608 l -17.71937467426908 -42.52004870639076" fill="#35ff69" stroke="none" /><path d="M 107.74402155503746 119.51999308798841 l 4.9328639025784655 12.434039419697006 a34.37678894847118,34.37678894847118 0 0,0 -0.5504014271848527,0.21290709600443486 l -4.718690212900084 -12.51688640383948" fill="#ff5c08" stroke="none" /><path d="M 102.15924093988457 120.88869738790638 l 1.4469575104095223 13.998001339173733 a35.07258780496466,35.07258780496466 0 0,0 -0.5994079560199622,0.05676455663719293 l -1.2064499910045448 -14.02077765131611" fill="#ff6609" stroke="none" /><path d="M 101.08105385017728 120.97215588758144 l 0.7113095541775157 13.79921532316875 a34.81753613409567,34.81753613409567 0 0,0 -0.5971609330881448,0.025644659892156384 l -0.4743228604885414 -13.809392551486738" fill="#ff6209" stroke="none" /><line stroke="#e1ed5e" stroke-width="0.3" x1="101.45913802915013" x2="101.54496967792366" y1="184.9874750549273" y2="189.98673829345242" /><path d="M 101.47630435890484 185.9873277026323 a86.0,86.0 0 0,1 -42.54439059252881,-10.42667462771756" fill="none" id="id151" stroke="none" /><text fill="#e1ed5e" style="font-size:6.75px; font-family:Arial;" text-anchor="middle"><textPath startOffset="22.145653131862474" xlink:href="#id151">July</textPath></text><path d="M 98.19965949673042 120.92268563240118 l -1.3517738293486565 15.709660937031083 a36.76771192158812,36.76771192158812 0 0,0 -0.6283784696186646,-0.05950809439551948 l 1.6212518623523364 -15.68414108713038" fill="#ff800b" stroke="none" /><path d="M 95.70440661134978 120.55596938700252 l -3.164298933228146 15.142315884605038 a36.46940587378813,36.46940587378813 0 0,0 -0.611709304396143,-0.13331919579334797 l 3.4237706542434254 -15.085765230677971" fill="#ff7b0b" stroke="none" /><path d="M 91.59046798132341 119.24265499422711 l -4.433677060594218 10.145120780009782 a32.07162896409673,32.07162896409673 0 0,0 -0.5025877733652975,-0.22480111836789968 l 4.607178236815151 -10.067515910732027" fill="#ff3805" stroke="none" /><line stroke="#e1ed5e" stroke-width="0.3" x1="58.13341422392154" x2="55.67067388415222" y1="173.97424548756322" y2="178.32567169271397" /><path d="M 57.64086615596768 174.84453072859336 a86.0,86.0 0 0,1 -31.369924170532247,-30.572349798747897" fill="none" id="id152" stroke="none" /><text fill="#e1ed5e" style="font-size:6.75px; font-family:Arial;" text-anchor="middle"><textPath startOffset="22.145653131862474" xlink:href="#id152">August</textPath></text><path d="M 86.40962598614128 116.0094264158162 l -7.648235271054339 9.009601918087972 a32.818139848716214,32.818139848716214 0 0,0 -0.42635533270199466,-0.3682755817592041 l 7.801770083519196 -8.876982203864046" fill="#ff4306" stroke="none" /><path d="M 85.86807049272751 115.53346607816431 l -8.056891093780052 8.855934671644933 a32.97251322845271,32.97251322845271 0 0,0 -0.4154069221526178,-0.3844944454792146 l 8.207727787246638 -8.716322480033341" fill="#ff4606" stroke="none" /><path d="M 82.576782715395 111.72311816256416 l -24.94219652543456 16.78222295717617 a51.062537732163776,51.062537732163776 0 0,0 -0.4830894444794858,-0.7314589910907521 l 25.226610408834773 -16.351584087746357" fill="#b8ff1f" stroke="none" /><path d="M 82.37810715431573 111.42229804090323 l -12.556670334481154 8.139082005423598 a35.96377712276714,35.96377712276714 0 0,0 -0.33135021978880935,-0.5209375813166562 l 12.694538245895853 -7.92233074942827" fill="#ff740a" stroke="none" /><path d="M 82.18462484594161 111.11811171558189 l -23.66694675815959 14.769925176905694 a48.897581590255335,48.897581590255335 0 0,0 -0.43829006266389015,-0.7159138785845083 l 23.917004785278884 -14.361474182196629" fill="#d4ff1c" stroke="none" /><path d="M 81.99639281039703 110.81064883170644 l -37.06406876623723 22.25590835693223 a64.23274974253347,64.23274974253347 0 0,0 -0.5595170761221246,-0.9501823173719159 l 37.44065955248912 -21.616374871266753" fill="#32ff44" stroke="none" /><line stroke="#e1ed5e" stroke-width="0.3" x1="26.387840678322732" x2="22.057713659400548" y1="142.50000000000003" y2="145.00000000000006" /><path d="M 25.521815274538298 143.00000000000003 a86.0,86.0 0 0,1 -11.493303480769221,-40.785679425670985" fill="none" id="id153" stroke="none" /><text fill="#e1ed5e" style="font-size:6.75px; font-family:Arial;" text-anchor="middle"><textPath startOffset="21.40746469413373" xlink:href="#id153">September</textPath></text><path d="M 79.56144815229197 104.8234425847677 l -35.35574058218353 8.343858508704841 a57.326964735963635,57.326964735963635 0 0,0 -0.2178128155141228,-0.9597234543168099 l 35.49376425925532 -7.735700720449006" fill="#6bff28" stroke="none" /><path d="M 79.48165901384964 104.47187691870673 l -17.2998491314742 3.770421598918115 a38.70595546716858,38.70595546716858 0 0,0 -0.13591741718472028,-0.6504140438877795 l 17.362024259483288 -3.472891103744926" fill="#ff9d0e" stroke="none" /><path d="M 79.34024301695615 103.76489593502545 l -21.64876058449073 3.9451253366524393 a43.00529138108597,43.00529138108597 0 0,0 -0.1261185104049439,-0.7274180533257963 l 21.713293912387908 -3.57291425040605" fill="#ffdb14" stroke="none" /><path d="M 79.17382384314188 102.69636545807758 l -28.608904652139138 3.7039954774444057 a49.84768635249831,49.84768635249831 0 0,0 -0.1025863337589395,-0.8495620064903963 l 28.66827307215774 -3.21233979403061" fill="#c7ff1e" stroke="none" /><path d="M 79.13060592940153 102.33845913500099 l -17.4105545476224 1.9508889520026653 a38.51951418729358,38.51951418729358 0 0,0 -0.06799172541388067,-0.6577582662581878 l 17.441478665517945 -1.651726163461546" fill="#ff9a0e" stroke="none" /><path d="M 79.03789590574601 101.26102812881392 l -32.794649446651704 1.97284467441203 a53.85393657445221,53.85393657445221 0 0,0 -0.047592545920399076,-0.9232826764049198 l 32.82368358202868 -1.4095902046303794" fill="#95ff23" stroke="none" /><path d="M 79.00696218219943 100.54070618675478 l -54.413858597451195 1.4015079782256856 a75.4319045420647,75.4319045420647 0 0,0 -0.02222930956673629,-1.29474583935787 l 54.42989933861659 -0.4672152228987633" fill="#41ffcf" stroke="none" /><line stroke="#e1ed5e" stroke-width="0.3" x1="15.003131293944662" x2="10.003315487706104" y1="100.72959589197737" y2="100.7725132973878" /><path d="M 14.003168132696942 100.73817937305945 a86.0,86.0 0 0,1 10.791469493833604,-42.45332614584628" fill="none" id="id154" stroke="none" /><text fill="#e1ed5e" style="font-size:6.75px; font-family:Arial;" text-anchor="middle"><textPath startOffset="22.145653131862435" xlink:href="#id154">October</textPath></text><path d="M 79.00077361379809 100.18025310272382 l -47.613111512476756 0.408701297972507 a68.61486558471536,68.61486558471536 0 0,0 0.0,-1.1779088013926315 l 47.613111512476756 0.40870129797248944" fill="#38ff7d" stroke="none" /><path d="M 79.00077361379809 99.81974689727619 l -30.08380239517636 -0.25823326172738265 a51.08491068574878,51.08491068574878 0 0,0 0.015054403050228241,-0.8768435049582695 l 30.074936560527465 0.7746236826547045" fill="#b8ff1f" stroke="none" /><path d="M 79.01933749520258 99.09900007780938 l -16.593640919220977 -0.7126023391138663 a37.608934976384106,37.608934976384106 0 0,0 0.03323628835204225,-0.6447751148837819 l 16.578963041412365 0.9973492473743601" fill="#ff8d0c" stroke="none" /><path d="M 79.03789590574601 98.7389718711861 l -29.37255375712844 -1.7669798955435374 a50.425654320110795,50.425654320110795 0 0,0 0.05939671159711102,-0.8636151508356533 l 29.337893084366264 2.270938470533516" fill="#c0ff1e" stroke="none" /><path d="M 79.0935383218832 98.0201363427161 l -17.822352092872396 -1.687795273024615 a38.90209169359707,38.90209169359707 0 0,0 0.06866702221621836,-0.6642911502409226 l 17.790752678174513 1.9934909455484504" fill="#ffa00e" stroke="none" /><path d="M 79.17382384314186 97.30363454192245 l -8.036408612536682 -1.0404739893984416 a29.103483788486805,29.103483788486805 0 0,0 0.06840078630040174,-0.49491401585611655 l 8.017363309681073 1.1782763134546252" fill="#ff0801" stroke="none" /><path d="M 79.34024301695615 96.23510406497455 l -11.789539222292394 -2.14844677651635 a32.983699705245215,32.983699705245215 0 0,0 0.10629186920503786,-0.5561639743494643 l 11.750921060805197 2.350513315899129" fill="#ff4606" stroke="none" /><path d="M 79.407916724674 95.88100663000787 l -9.310643284969304 -1.8623894167669244 a30.495081501473773,30.495081501473773 0 0,0 0.10708462469124673,-0.5124386942181305 l 9.277300949453691 2.021944562270464" fill="#ff1e03" stroke="none" /><path d="M 79.48165901384962 95.52812308129327 l -10.044580080758648 -2.189169477764557 a31.280372172307253,31.280372172307253 0 0,0 0.11884923551352802,-0.5236716608282339 l 10.005519983687458 2.361275472531799" fill="#ff2b04" stroke="none" /><path d="M 80.05021161711548 93.44210830539832 l -43.24000974369086 -14.213850058475959 a66.51628253844241,66.51628253844241 0 0,0 0.3658857302857922,-1.0816761479562689 l 42.98963859183271 14.95402788090639" fill="#35ff62" stroke="none" /><path d="M 80.41425534168474 92.42381321644754 l -13.410729882345843 -5.187558413781557 a35.37909726907915,35.37909726907915 0 0,0 0.2239687652120716,-0.5645475955604826 l 13.319702442167639 5.4170070265556225" fill="#ff6b09" stroke="none" /><path d="M 80.9802524753101 91.09779779509293 l -54.04137148701709 -25.29409056473631 a80.66792144607408,80.66792144607408 0 0,0 0.5977905616319116,-1.249152358983758 l 53.59920166742528 26.218055425785156" fill="#48f5ff" stroke="none" /><path d="M 81.46374523516351 90.13048839642627 l -11.773177899396305 -6.268554104546187 a34.33800916225718,34.33800916225718 0 0,0 0.2814975220111082,-0.5179237347737708 l 11.663835027769847 6.469732672794577" fill="#ff5b08" stroke="none" /><line stroke="#e1ed5e" stroke-width="0.3" x1="26.387840678322718" x2="22.05771365940052" y1="57.49999999999999" y2="54.99999999999999" /><path d="M 25.521815274538284 56.99999999999999 a86.0,86.0 0 0,1 29.574782752854787,-30.34633250058573" fill="none" id="id155" stroke="none" /><text fill="#e1ed5e" style="font-size:6.75px; font-family:Arial;" text-anchor="middle"><textPath startOffset="21.40746469413373" xlink:href="#id155">November</textPath></text><path d="M 81.99639281039701 89.18935116829357 l -12.721892675830826 -7.639131022170337 a35.839234347810645,35.839234347810645 0 0,0 0.32124247779279014,-0.5247254451650568 l 12.588882233582645 7.856393583459937" fill="#ff720a" stroke="none" /><line stroke="#e1ed5e" stroke-width="0.3" x1="56.869717070023135" x2="54.33264160355391" y1="26.7553504044142" y2="22.446841604673864" /><path d="M 56.362301976729285 25.89364864446614 a86.0,86.0 0 0,1 42.16139366436587,-11.88097634709845" fill="none" id="id156" stroke="none" /><text fill="#e1ed5e" style="font-size:6.75px; font-family:Arial;" text-anchor="middle"><textPath startOffset="22.145653131862474" xlink:href="#id156">December</textPath></text></svg>