<?xml version="1.0" encoding="utf-8" ?>
<svg baseProfile="full" height="200mm" version="1.1" viewBox="0,0,200,200" width="200mm" xmlns="http://www.w3.org/2000/svg" xmlns:ev="http://www.w3.org/2001/xml-events" xmlns:xlink="http://www.w3.org/1999/xlink"><defs /><rect fill="#1a1a1a" height="200" width="200" x="0" y="0" /><text alignment-baseline="middle" fill="#e1ed5e" style="dominant-baseline: central; font-size:9.0px; font-family:Arial;" text-anchor="middle" x="100.0" y="100.0">2025</text><line stroke="#e1ed5e" stroke-width="0.3" x1="100.0" x2="100.0" y1="15.0" y2="10.0" /><path d="M 100.0 14.0 a86.0,86.0 0 0,1 42.46469731375804,11.215312516191453" fill="none" id="id157" stroke="none" /><text fill="#e1ed5e" style="font-size:6.75px; font-family:Arial;" text-anchor="middle"><textPath startOffset="22.20632615414155" xlink:href="#id157">January</textPath></text><path d="M 101.44485096284872 79.0497635885617 l 2.4504630060230106 -35.53153966305737 a56.61593856367268,56.61593856367268 0 0,0 0.9716637950860284,0.07541981129870208 l -3.06171699047138 35.484094589570205" fill="#54ff2b" stroke="none" /><path d="M 103.95276090670814 79.375362276772 l 7.177326050440321 -37.44970998893484 a59.131283580410134,59.131283580410134 0 0,0 0.9980053882010657,0.20019049212589948 l -7.820897848108512 37.32061554073174" fill="#3bff2e" stroke="none" /><path d="M 105.71112130821622 79.79150937346287 l 17.13336392464865 -60.62547187961136 a84.0,84.0 0 0,0 1.3880391291062915,0.40520668432518603 l -18.174393271478365 60.321566866367476" fill="#4dd2ff" stroke="none" /><path d="M 108.43124777332544 80.76684994638697 l 1.5307117817390734 -3.491821160820795 a24.812596697516103,24.812596697516103 0 0,0 0.3896970513387108,0.17484570753928766 l -1.5905909515445644 3.464955122764976" fill="#ff2203" stroke="none" /><path d="M 109.41281617654863 81.2277094730956 l 2.883302161818394 -5.750264835019092 a27.432649300964865,27.432649300964865 0 0,0 0.42029367667814765,0.21529074548951507 l -2.9818563260852975 5.699781564217076" fill="#ff4706" stroke="none" /><path d="M 109.73455568895987 81.39251694778311 l 2.91750513232723 -5.576775051593066 a27.293826830571888,27.293826830571888 0 0,0 0.41441770876792056,0.22136758782969507 l -3.0130678876234613 5.525728737261617" fill="#ff4506" stroke="none" /><path d="M 110.05341064243156 81.56283822128135 l 2.123719013737089 -3.8947330832734464 a25.436116346451378,25.436116346451378 0 0,0 0.3826026867335727,0.21291798093209355 l -2.1904457895426974 3.857599704781173" fill="#ff2b04" stroke="none" /><line stroke="#e1ed5e" stroke-width="0.3" x1="143.23703022742887" x2="145.7803849466894" y1="26.81831364943548" y2="22.513508569990506" /><path d="M 143.74570117128098 25.957352633546492 a86.0,86.0 0 0,1 28.547481713284135,27.462654790039103" fill="none" id="id158" stroke="none" /><text fill="#e1ed5e" style="font-size:6.75px; font-family:Arial;" text-anchor="middle"><textPath startOffset="19.985693538727396" xlink:href="#id158">February</textPath></text><path d="M 110.68208982089419 81.91981866633111 l 1.232982223341982 -2.0869083253362084 a23.423928943148894,23.423928943148894 0 0,0 0.3453779504295953,0.20808635067356748 l -1.2687222399892149 2.065375365204026" fill="#ff0e01" stroke="none" /><path d="M 111.2981086023043 82.29822771554956 l 0.8065423810936379 -1.2636831588754713 a22.49913499676503,22.49913499676503 0 0,0 0.32466570454050936,0.2111716053972572 l -0.8281751114184275 1.249612629318686" fill="#ff0000" stroke="none" /><path d="M 115.9244219780498 86.31012108654704 l 2.2179468991763245 -1.906720666410701 a23.92487130439675,23.92487130439675 0 0,0 0.26578183566678054,0.31460186152307457 l -2.250439348330222 1.86825985525852" fill="#ff1502" stroke="none" /><path d="M 116.60985879189232 87.15038557335679 l 3.125007400063962 -2.4175485580184093 a24.950976117471658,24.950976117471658 0 0,0 0.2598751805611708,0.3419652753922421 l -3.1661585208492466 2.3633985067451335" fill="#ff2403" stroke="none" /><path d="M 117.65298651832404 88.62581576622439 l 5.781950224369347 -3.725430085964902 a27.87821035753467,27.87821035753467 0 0,0 0.25644290033932704,0.40563108344109045 l -5.8452207209546305 3.6253513548096055" fill="#ff4d07" stroke="none" /><line stroke="#e1ed5e" stroke-width="0.3" x1="172.23445277983987" x2="176.4835382374775" y1="55.19839476539836" y2="52.563006222186495" /><path d="M 173.08426987136738 54.67131705675599 a86.0,86.0 0 0,1 12.851231095245387,41.99856678651699" fill="none" id="id159" stroke="none" /><text fill="#e1ed5e" style="font-size:6.75px; font-family:Arial;" text-anchor="middle"><textPath startOffset="22.20632615414155" xlink:href="#id159">March</textPath></text><path d="M 118.89224826269711 90.83032412892265 l 1.702741664566696 -0.8264547945351984 a22.892711468677035,22.892711468677035 0 0,0 0.16901558733158237,0.35598993126901285 l -1.7167154457400347 0.7970224476256452" fill="#ff0600" stroke="none" /><path d="M 119.04729006885535 91.15688171328212 l 1.9964050408325138 -0.9268744194298242 a23.20107457312442,23.20107457312442 0 0,0 0.16505651358025675,0.36368014860412345 l -2.0120638713761174 0.892372261983638" fill="#ff0a01" stroke="none" /><path d="M 120.53481517161879 95.60439243477599 l 5.30237706163554 -1.1350074754024744 a26.422494303637233,26.422494303637233 0 0,0 0.09137238761962474,0.4455642122762631 l -5.321128745170161 1.0435676069627997" fill="#ff3905" stroke="none" /><path d="M 120.6074358757038 95.95851677861258 l 4.4841998429352925 -0.8794310236305511 a25.569622211595263,25.569622211595263 0 0,0 0.08098785291917342,0.43264034870380885 l -4.498673419764326 0.8021125974641795" fill="#ff2d04" stroke="none" /><path d="M 120.78858239683441 97.02765380044208 l 4.537067611630138 -0.6487087678772978 a25.583209091676277,25.583209091676277 0 0,0 0.05857824047941599,0.43647593184152994 l -4.547561851167391 0.5705144939711035" fill="#ff2d04" stroke="none" /><path d="M 120.87857604477298 97.74499172005257 l 1.7202551192759303 -0.185797610395961 a22.730259641621423,22.730259641621423 0 0,0 0.03866620039942628,0.38936336126346033 l -1.7231984453575853 0.1561587184280657" fill="#ff0300" stroke="none" /><line stroke="#e1ed5e" stroke-width="0.3" x1="184.98032266829074" x2="189.97916517819016" y1="98.17113171792111" y2="98.06355123074" /><path d="M 185.9800911702706 98.14961562048488 a86.0,86.0 0 0,1 -9.607161424134198,41.387399972396054" fill="none" id="id160" stroke="none" /><text fill="#e1ed5e" style="font-size:6.75px; font-family:Arial;" text-anchor="middle"><textPath startOffset="21.466115282336823" xlink:href="#id160">April</textPath></text><line stroke="#e1ed5e" stroke-width="0.3" x1="174.80103733775053" x2="179.2010983576182" y1="140.37084112569926" y2="142.7455964860345" /><path d="M 175.68104954172406 140.8457921977663 a86.0,86.0 0 0,1 -30.038265399797805,32.042727171017184" fill="none" id="id161" stroke="none" /><text fill="#e1ed5e" style="font-size:6.75px; font-family:Arial;" text-anchor="middle"><textPath startOffset="22.206326154141568" xlink:href="#id161">May</textPath></text><line stroke="#e1ed5e" stroke-width="0.3" x1="143.8653032363475" x2="146.44561519142675" y1="172.8068346515853" y2="177.08958963109032" /><path d="M 144.38136562736335 173.6633856474863 a86.0,86.0 0 0,1 -40.68145358897372,12.25698825130547" fill="none" id="id162" stroke="none" /><text fill="#e1ed5e" style="font-size:6.75px; font-family:Arial;" text-anchor="middle"><textPath startOffset="21.466115282336833" xlink:href="#id162">June</textPath></text><line stroke="#e1ed5e" stroke-width="0.3" x1="102.19456741930631" x2="102.32365962044197" y1="184.97166512339345" y2="189.96999836594603" /><path d="M 102.22038585953345 185.97133177190398 a86.0,86.0 0 0,1 -42.740103519485714,-10.115201625700543" fill="none" id="id163" stroke="none" /><text fill="#e1ed5e" style="font-size:6.75px; font-family:Arial;" text-anchor="middle"><textPath startOffset="22.20632615414155" xlink:href="#id163">July</textPath></text><line stroke="#e1ed5e" stroke-width="0.3" x1="58.666819895761336" x2="56.23545636021788" y1="174.27360380694188" y2="178.64263932499728" /><path d="M 58.180547188652646 175.14741091055294 a86.0,86.0 0 0,1 -31.652253787137756,-30.449443065178592" fill="none" id="id164" stroke="none" /><text fill="#e1ed5e" style="font-size:6.75px; font-family:Arial;" text-anchor="middle"><textPath startOffset="22.20632615414155" xlink:href="#id164">August</textPath></text><line stroke="#e1ed5e" stroke-width="0.3" x1="26.63291911575756" x2="22.317208475507996" y1="142.92168965132927" y2="145.44649492493687" /><path d="M 25.769776987707644 143.4266507060508 a86.0,86.0 0 0,1 -11.730757126820373,-40.83630448921669" fill="none" id="id165" stroke="none" /><text fill="#e1ed5e" style="font-size:6.75px; font-family:Arial;" text-anchor="middle"><textPath startOffset="21.46611528233685" xlink:href="#id165">September</textPath></text><line stroke="#e1ed5e" stroke-width="0.3" x1="15.007084014347285" x2="10.007500721073583" y1="101.09737516637583" y2="101.16192664675087" /><path d="M 14.007167355692545 101.11028546245083 a86.0,86.0 0 0,1 10.666146001902534,-42.60595125391555" fill="none" id="id166" stroke="none" /><text fill="#e1ed5e" style="font-size:6.75px; font-family:Arial;" text-anchor="middle"><textPath startOffset="22.20632615414155" xlink:href="#id166">October</textPath></text><line stroke="#e1ed5e" stroke-width="0.3" x1="26.266209847984243" x2="21.928928074336255" y1="57.711370442889674" y2="55.22380399835377" /><path d="M 25.398753493254645 57.213857153982495 a86.0,86.0 0 0,1 29.58750427330803,-30.492523968695096" fill="none" id="id167" stroke="none" /><text fill="#e1ed5e" style="font-size:6.75px; font-family:Arial;" text-anchor="middle"><textPath startOffset="21.46611528233685" xlink:href="#id167">November</textPath></text><line stroke="#e1ed5e" stroke-width="0.3" x1="56.762969772571076" x2="54.21961505331055" y1="26.818313649435495" y2="22.513508569990535" /><path d="M 56.25429882871897 25.957352633546506 a86.0,86.0 0 0,1 42.265352541879196,-11.944610805530505" fill="none" id="id168" stroke="none" /><text fill="#e1ed5e" style="font-size:6.75px; font-family:Arial;" text-anchor="middle"><textPath startOffset="22.20632615414155" xlink:href="#id168">December</textPath></text></svg>